<svg width="191" height="110" viewBox="0 0 191 110" fill="none" xmlns="http://www.w3.org/2000/svg">
<path d="M166.75 66.6662C160.671 65.9149 161.828 60.0772 167.24 60.5683C172.652 61.0594 179.225 67.9816 182.887 70.0844C186.549 72.1872 189.131 74.5039 189.548 70.4889C189.965 66.474 181.095 63.1121 178.05 65.1772C175.004 67.2423 175.322 71.1749 176.864 73.3075C178.405 75.4401 180.786 72.696 181.095 74.7395C181.405 76.783 181.249 77.3985 182.887 77.5446C184.525 77.6908 183.979 72.7231 185.071 73.3075C186.163 73.892 186.436 78.5674 186.982 80.1746C187.528 81.7818 189.029 84.1195 188.756 86.6033C188.635 87.7092 187.593 89.2786 186.124 90.8084C184.294 92.7145 181.801 94.5593 179.597 95.3698C175.624 96.8309 175.322 90.4021 173.878 89.0872C172.433 87.7722 164.896 92.3015 163.336 91.2788C161.776 90.256 163.336 84.8927 163.336 82.5625C163.336 80.2322 169.385 77.2362 172.426 74.7395C175.467 72.2428 172.426 71.4628 169.385 71.1749C166.344 70.8871 162.279 71.1749 159.187 69.016C156.094 66.8571 155.691 61.6758 155.96 59.5168C156.229 57.3579 156.029 54.8052 157.54 53.9961C159.052 53.187 162.202 56.5582 163.336 53.187C164.47 49.8158 160.06 49.8158 161.436 47.7931C162.812 45.7704 168.226 45.0718 169.385 43.0568C170.543 41.0418 163.737 35.6168 164.896 33.2918C166.054 30.9668 169.385 36.7018 170.399 35.6168C171.412 34.5318 168.371 33.2918 169.385 30.0368C170.399 26.7819 175.322 27.5569 176.046 28.4869C176.77 29.4168 179.597 33.2918 179.597 35.6168C179.597 37.9418 174.019 39.1818 172.426 38.8718C170.833 38.5618 174.743 35.1518 175.322 33.2918C175.901 31.4318 173.173 30.0368 173.173 27.5569C173.173 25.0769 166.543 21.3512 166.75 19.0224C166.957 16.6936 171.619 16.5827 173.173 17.0263C174.727 17.4699 178.664 25.1216 179.597 24.0126C180.529 22.9037 178.05 19.3551 178.05 17.8026C178.05 16.25 180.481 14.4702 178.05 10.6924C175.618 6.91461 170.351 10.6924 161.436 9.83158C152.521 8.97075 142.999 8.19265 130.437 3.94816C117.876 -0.296325 126.588 3.94816 126.183 6.44631C125.778 8.94445 120.159 8.97934 118.935 9.83158C117.71 10.6838 114.708 11.995 114.402 8.19265C114.096 4.39035 112.136 5.76705 111.585 8.97934C111.034 12.1916 108.489 12.6595 104.132 10.6924C99.7757 8.72526 96.1068 13.1504 92.2087 15.8564C88.3106 18.5624 93.5845 21.4953 90.3743 22.9679C87.1641 24.4405 80.3273 17.3118 76.009 15.8564C71.6906 14.401 78.384 9.03254 78.1681 3.94816C77.9522 -1.13621 65.2132 1.40597 59.4216 3.94816C53.6299 6.49036 55.7655 9.51888 54.8477 10.6924C53.93 11.8659 54.106 15.8564 54.8477 20.2228C55.5894 24.5892 54.6005 27.2355 50.0267 28.0293C45.4529 28.8232 43.475 35.9682 39.3957 38.0853C35.3164 40.2023 38.4068 42.9809 36.7998 43.5102C35.1927 44.0394 33.4566 41.7183 30.336 43.5102C27.2813 45.2642 28.3581 47.686 30.336 49.0092C32.3138 50.3323 32.4732 48.8027 35.5636 52.3752C38.654 55.9477 35.44 63.7543 36.7998 69.9731C38.1595 76.1918 45.8238 71.4285 44.2167 89.1587C42.9311 103.343 48.7905 107.683 51.881 108.08C50.48 107.683 47.9252 105.275 48.9142 98.8176C50.1503 90.7465 57.3201 88.2325 59.4216 86.1154C61.523 83.9984 61.6467 80.029 61.6466 77.7796C61.6466 75.5303 67.2094 72.2224 67.333 69.3115C67.4566 66.4006 57.1965 62.5634 51.881 58.3294C46.5655 54.0953 44.0931 55.0215 39.3957 57.1386C34.6983 59.2556 31.237 53.4337 27.2813 52.3752C23.3256 51.3167 20.1116 45.6272 15.9086 40.4669C11.7056 35.3066 14.5489 28.6909 15.9086 26.5739C17.2683 24.4569 15.5378 19.1643 14.5489 17.3118C13.5601 15.4594 0.951052 18.2381 1.56922 15.8564C0.829167 13.9103 5.60793 10.6924 7.90264 9.83158C10.1973 8.97075 15.9086 8.19265 24.2524 8.97934C30.9275 9.60868 39.559 6.98938 43.0404 5.60106C48.3726 5.19293 56.6337 5.34289 60.1073 8.19265C63.8277 11.2449 62.6298 17.0263 64.4099 17.0263C67.8519 17.0263 67.333 12.5091 71.7243 10.6924C76.1155 8.87575 80.616 14.1409 85.2772 17.8026C89.9384 21.4642 80.7454 30.0368 84.1119 34.0977C87.4783 38.1586 108.195 38.8718 108.842 37.2853C109.49 35.6988 106.9 35.6168 105.217 35.6168C103.534 35.6168 105.087 33.2918 104.132 32.2961C103.177 31.3003 101.721 33.2918 99.0019 34.0977C96.2829 34.9037 98.484 30.0368 94.2112 30.0368C89.9384 30.0368 89.291 35.6168 84.1119 38.0853C78.9328 40.5537 78.1681 53.187 81.9108 59.5168C85.6534 65.8467 92.2087 57.1386 96.1534 60.5683C100.098 63.998 96.9303 74.7395 96.8008 77.5446C96.6713 80.3498 97.3187 88.2862 100.167 91.2788C103.016 94.2714 107.289 89.1587 111.585 86.1154C115.881 83.0722 114.402 79.1393 116.223 76.3675C118.043 73.5957 118.935 68.1513 118.935 66.6662C118.935 65.1812 127.044 57.1386 122.049 57.1386C117.055 57.1386 110.008 40.8254 111.585 40.8254C113.162 40.8254 118.149 52.3385 120.899 53.187C123.65 54.0355 127.044 50.9099 127.965 50.033C128.887 49.1561 129.809 46.7446 127.044 46.7446C124.279 46.7446 120.285 41.4831 120.899 40.8254C121.514 40.1677 126.183 43.0568 127.965 43.8946C129.748 44.7324 132.574 43.0568 135.543 46.7446C138.513 50.4323 139.845 57.9252 141.995 58.0348C144.146 58.1444 143.019 53.187 146.194 48.3888C149.369 43.5905 149.238 46.5401 153.924 53.187C160.263 62.1787 161.436 56.0154 168.028 56.1927C175.929 56.4052 173.878 48.3888 170.399 50.033" stroke="#0B4159" stroke-width="1.5" stroke-linecap="round"/>
<g style="mix-blend-mode:darken">
<path d="M139.045 72.7704C148.566 63.2497 148.566 47.8137 139.045 38.2931C129.524 28.7725 114.088 28.7725 104.568 38.2931C95.0471 47.8137 95.0471 63.2497 104.568 72.7704C114.088 82.291 129.524 82.291 139.045 72.7704ZM139.045 72.7704L158.485 92.2103" stroke="#9AE0A5" stroke-width="9" stroke-linecap="round"/>
</g>
</svg>
