<svg width="143" height="141" viewBox="0 0 143 140" fill="none" xmlns="http://www.w3.org/2000/svg">
<path d="M78.9565 119.947L80.7319 122.368C81.1092 122.883 81.3127 123.504 81.3127 124.142V137.07C81.3127 138.024 82.5209 138.436 83.104 137.681L84.7607 135.537C85.1201 135.072 85.8014 135.016 86.2323 135.415L86.9439 136.076C87.5715 136.658 88.5931 136.234 88.6236 135.379L89.1326 121.105C89.1591 120.36 88.9073 119.632 88.4261 119.062L86.6661 116.979C85.9122 116.087 84.7091 115.713 83.5824 116.021L60.0284 122.468C58.6856 122.835 57.3247 121.943 57.1269 120.565V120.565C56.959 119.394 57.7004 118.286 58.8461 117.994L91.2125 109.746C92.631 109.384 93.2119 107.685 92.3116 106.531V106.531C91.8191 105.899 91.0011 105.617 90.2236 105.809L45.5214 116.876C44.4089 117.151 43.2471 116.667 42.6595 115.683V115.683C41.747 114.155 42.6014 112.182 44.3401 111.803L88.1452 102.241C88.8111 102.095 89.4076 101.728 89.8366 101.198L93.3273 96.8884C94.5221 95.4133 96.7693 95.4048 97.9753 96.8707L104.445 104.736C105.646 106.195 107.88 106.194 109.08 104.735L124.607 85.8441C125.545 84.7021 125.512 83.0466 124.529 81.943L114.356 70.5301C113.125 69.1485 110.948 69.2005 109.784 70.6393L87.2758 98.4608C86.8311 99.0105 86.2064 99.3855 85.5121 99.5195L62.7298 103.917C61.8268 104.091 60.9079 103.704 60.4018 102.937V102.937C59.5083 101.581 60.2833 99.753 61.8787 99.4528L83.4359 95.3952C84.1344 95.2637 84.7636 94.8885 85.2112 94.3364L111.909 61.4103C112.678 60.4613 112.676 59.1025 111.904 58.156V58.156C110.859 56.8763 108.898 56.8947 107.878 58.1938L82.7565 90.1848C82.3078 90.7561 81.6671 91.1453 80.9533 91.28L31.7062 100.573C30.7964 100.744 29.8743 100.341 29.382 99.5573V99.5573C28.5345 98.2072 29.32 96.4282 30.8887 96.1449L77.8418 87.6669C78.5602 87.5372 79.2067 87.1499 79.6601 86.5777L102.984 57.1414C103.673 56.2711 103.682 55.0432 103.005 54.1633V54.1633C102.036 52.9039 100.136 52.905 99.1683 54.1655L77.0849 82.9288C76.6252 83.5276 75.9567 83.931 75.2126 84.0587L35.6179 90.8512C34.8408 90.9845 34.0592 90.6413 33.6316 89.979V89.979C32.8641 88.7904 33.5639 87.2045 34.9592 86.9703L72.9018 80.6006C73.6356 80.4774 74.2974 80.086 74.7587 79.5023L102.18 44.8089C102.822 43.9962 102.832 42.8516 102.204 42.0277V42.0277C101.304 40.8467 99.5313 40.8344 98.6152 42.0028L72.4326 75.3947C71.9703 75.9843 71.3041 76.3796 70.565 76.5028L21.4885 84.6821C20.715 84.811 19.9311 84.5196 19.4296 83.9167V83.9167C18.3373 82.6036 19.087 80.6009 20.773 80.3277L63.9475 73.3333C66.0935 72.9857 67.1687 70.5421 65.9753 68.7251L65.5909 68.1397C64.944 67.1548 63.7805 66.6398 62.6165 66.8231L7.05692 75.5749C4.88339 75.9173 3.80569 78.4054 5.04276 80.225L39.9199 131.527C40.6591 132.614 40.0702 134.105 38.7874 134.393V134.393C38.0418 134.561 37.2694 134.256 36.8388 133.625L4.94151 86.8424C3.92805 85.356 1.63997 85.7307 1.15351 87.4627V87.4627C0.981579 88.0748 1.09383 88.7318 1.45924 89.2521L35.2078 137.308C35.9294 138.336 37.2146 138.805 38.4286 138.485L102.345 121.612C102.947 121.453 103.485 121.11 103.884 120.631L141.172 75.8474C142.147 74.6768 142.089 72.9617 141.039 71.8588L100.678 29.4838C99.4254 28.1691 97.3015 28.2593 96.1653 29.6755L69.0865 63.4268C68.4202 64.2573 68.3257 65.4094 68.8476 66.3373V66.3373C69.7573 67.9545 72.0171 68.1313 73.1671 66.6752L93.6612 40.7283" stroke="#0B4159" stroke-width="1.5" stroke-linecap="round"/>
<g style="mix-blend-mode:darken">
<path d="M33.2456 36.8544C35.7091 50.1386 38.5099 56.8068 45.7681 67.8665" stroke="#9AE0A5" stroke-width="12.9615" stroke-linecap="round"/>
<path d="M56.5205 37.9696C56.9474 51.4736 58.708 58.4885 64.2108 70.5184" stroke="#9AE0A5" stroke-width="12.9615" stroke-linecap="round"/>
<path d="M30.3717 77.9504C42.4907 83.9228 49.5096 85.6673 62.7142 86.4669" stroke="#9AE0A5" stroke-width="12.9615" stroke-linecap="round"/>
<path d="M77.5195 34.2931C68.901 23.8882 63.2085 19.4268 51.4845 13.2992" stroke="#9AE0A5" stroke-width="12.9615" stroke-linecap="round"/>
<path d="M80.4429 84.1765C81.472 70.705 80.4768 63.5413 76.3009 50.989" stroke="#9AE0A5" stroke-width="12.9615" stroke-linecap="round"/>
</g>
</svg>
