<svg width="158" height="101" viewBox="0 0 158 101" fill="none" xmlns="http://www.w3.org/2000/svg">
<path fill-rule="evenodd" clip-rule="evenodd" d="M94.7205 43.8651C85.5345 3.01828 37.4667 -5.40138 13.5708 20.1639C12.5199 21.2882 12.6621 23.0348 13.7929 24.0222L36.1512 43.5472C36.4091 43.7724 36.4541 44.1565 36.2553 44.4352C36.0308 44.7499 35.5864 44.8078 35.2887 44.5612L12.7612 25.8987C11.4791 24.8365 9.53183 25.1444 8.68111 26.6049C3.43219 35.6165 0.765016 43.9707 0.55929 52.2346C0.353532 60.4999 2.61163 68.61 7.10906 77.1298C7.86328 78.5586 9.67746 78.9856 11.005 78.1106L35.1777 62.1785C35.4836 61.9768 35.8935 62.0482 36.1133 62.3413C36.3488 62.6553 36.2767 63.102 35.9544 63.326L12.4258 79.6736C11.117 80.5829 10.8392 82.4315 11.8911 83.6638C14.6636 86.9117 16.9574 89.026 20.4124 91.7123C21.6402 92.6669 23.4041 92.3913 24.3032 91.14L41.5568 67.1303C41.7128 66.9131 42.0057 66.8454 42.2413 66.9719C42.5221 67.1227 42.6084 67.4847 42.4259 67.746L26.0884 91.1439C25.1202 92.5306 25.6179 94.4811 27.192 95.1783C37.3637 99.6831 46.7938 101.292 55.7757 99.9092C64.758 98.5262 73.2183 94.1623 81.4694 86.8474C82.2741 86.134 83.3633 86.0607 84.2589 86.4658C85.1495 86.8687 85.7603 87.7006 85.6906 88.746L85.2524 95.3188C85.1466 96.906 86.4055 98.2517 87.9963 98.2517H92.9913C94.5101 98.2517 95.7413 97.0205 95.7413 95.5017V92.0813C95.7413 91.3909 96.301 90.8313 96.9913 90.8313H103.837C104.527 90.8313 105.087 91.3909 105.087 92.0813V95.7893C105.087 97.1492 106.189 98.2517 107.549 98.2517C108.909 98.2517 110.011 97.1492 110.011 95.7893V62.9705C110.011 62.2801 110.571 61.7205 111.261 61.7205H119.819C120.509 61.7205 121.069 62.2801 121.069 62.9705V96.0747C121.069 97.277 122.044 98.2517 123.246 98.2517C124.448 98.2517 125.423 97.277 125.423 96.0747V72.1033C125.423 71.4129 125.983 70.8533 126.673 70.8533H134.66C135.35 70.8533 135.91 71.4129 135.91 72.1033V95.5017C135.91 97.0205 137.141 98.2517 138.66 98.2517H144.08C144.494 98.2517 144.83 97.9159 144.83 97.5017C144.83 97.0875 144.494 96.7517 144.08 96.7517H138.66C137.969 96.7517 137.41 96.192 137.41 95.5017V72.1033C137.41 70.5845 136.179 69.3533 134.66 69.3533H126.673C125.154 69.3533 123.923 70.5845 123.923 72.1033V96.0747C123.923 96.4486 123.62 96.7517 123.246 96.7517C122.872 96.7517 122.569 96.4486 122.569 96.0747V62.9705C122.569 61.4517 121.338 60.2205 119.819 60.2205H111.261C109.743 60.2205 108.511 61.4517 108.511 62.9705V95.7893C108.511 96.3208 108.08 96.7517 107.549 96.7517C107.017 96.7517 106.587 96.3208 106.587 95.7893V92.0813C106.587 90.5625 105.355 89.3313 103.837 89.3313H96.9913C95.4726 89.3313 94.2413 90.5625 94.2413 92.0813V95.5017C94.2413 96.192 93.6817 96.7517 92.9913 96.7517H87.9963C87.2732 96.7517 86.701 96.14 86.7491 95.4185L87.1873 88.8458C87.3054 87.0745 86.2388 85.7151 84.8771 85.0991C83.5204 84.4854 81.7822 84.5656 80.4744 85.725C72.385 92.8964 64.1812 97.0973 55.5474 98.4267C46.9134 99.7561 37.7756 98.2251 27.7994 93.8068C27.1157 93.504 26.8728 92.6405 27.3183 92.0026L43.6558 68.6047C44.3521 67.6075 44.0226 66.2261 42.9512 65.6505C42.0521 65.1675 40.9343 65.4262 40.3387 66.255L23.0851 90.2647C22.674 90.8368 21.878 90.9517 21.3331 90.5281C17.9448 87.8937 15.7281 85.8484 13.032 82.69C12.5733 82.1526 12.6797 81.3237 13.2817 80.9054L36.8102 64.5579C37.8305 63.849 38.0587 62.4351 37.3133 61.4413C36.6177 60.5137 35.3203 60.288 34.3522 60.926L10.1795 76.8581C9.57013 77.2598 8.76433 77.0524 8.43558 76.4296C4.02697 68.078 1.86093 60.2215 2.05883 52.2719C2.25676 44.3211 4.82104 36.2123 9.97727 27.3599C10.349 26.7217 11.2161 26.5665 11.8043 27.0538L34.3318 45.7163C35.3002 46.5186 36.7459 46.3301 37.4763 45.3065C38.1233 44.3997 37.9769 43.1501 37.1379 42.4174L14.7795 22.8924C14.2592 22.438 14.2206 21.6654 14.6666 21.1882C37.8024 -3.56392 84.3553 4.61128 93.2571 44.1942C93.4107 44.8772 92.9318 45.5589 92.2185 45.6475L64.0045 49.1526C62.7227 49.3119 61.8242 50.4964 62.0162 51.7737C62.1852 52.8978 63.151 53.7293 64.2877 53.7293H92.9426C93.6494 53.7293 94.2016 54.3099 94.1678 54.9916C93.7838 62.7313 92.2578 67.9899 88.3985 76.3525C88.0929 77.0147 87.2738 77.2666 86.6394 76.8842L57.7829 59.4936C57.4742 59.3076 57.0853 59.3699 56.8486 59.6228C56.8002 59.6608 56.7558 59.7053 56.7166 59.7564C54.9129 62.1049 52.1554 63.7008 48.9716 63.9342C43.0485 64.3683 37.895 59.9186 37.4608 53.9955C37.0267 48.0724 41.4764 42.9189 47.3995 42.4847C53.3226 42.0506 58.4762 46.5003 58.9103 52.4234C58.9406 52.8365 59.3 53.1469 59.7131 53.1166C60.1262 53.0863 60.4366 52.7269 60.4063 52.3138C59.9116 45.5644 54.0392 40.4941 47.2899 40.9887C40.5405 41.4834 35.4702 47.3558 35.9648 54.1052C36.4595 60.8545 42.3319 65.9249 49.0813 65.4302C52.508 65.179 55.5025 63.5407 57.5543 61.1072L85.8651 78.1689C87.2551 79.0066 89.0757 78.465 89.7605 76.981C93.676 68.4965 95.27 63.0477 95.6659 55.0659C95.7434 53.5035 94.4826 52.2293 92.9426 52.2293H64.2877C63.8933 52.2293 63.5581 51.9408 63.4995 51.5507C63.4329 51.1075 63.7447 50.6964 64.1895 50.6412L92.4035 47.136C93.9775 46.9405 95.0726 45.4309 94.7205 43.8651Z" fill="#0B4159"/>
<g style="mix-blend-mode:darken">
<path fill-rule="evenodd" clip-rule="evenodd" d="M126.11 7.68682C125.199 7.31951 124.759 6.28357 125.126 5.373C125.493 4.46243 126.529 4.02203 127.44 4.38935C128.576 4.84777 129.486 5.4996 130.136 6.36381C130.786 7.2276 131.09 8.18955 131.199 9.13115C131.396 10.8437 130.95 12.7288 130.594 14.2369L130.594 14.2369L130.558 14.3908C130.392 15.0929 130.247 15.7241 130.142 16.2954C130.776 16.4956 131.402 16.7536 132.013 17.0715C132.664 17.4106 133.27 17.803 133.827 18.2407C133.935 17.7496 134.038 17.2089 134.148 16.6175L134.177 16.4621C134.459 14.9384 134.812 13.0339 135.683 11.5461C136.162 10.7282 136.828 9.97071 137.771 9.44229C138.715 8.91363 139.81 8.68404 141.035 8.72284C142.016 8.75393 142.787 9.5747 142.755 10.5561C142.724 11.5375 141.904 12.3078 140.922 12.2767C140.216 12.2543 139.786 12.3891 139.51 12.5441C139.233 12.6993 138.984 12.9446 138.752 13.3422C138.229 14.2346 137.966 15.5324 137.644 17.2668L137.615 17.4223C137.391 18.6321 137.123 20.0819 136.586 21.3727C137.026 22.1077 137.382 22.8878 137.649 23.6971C138.334 23.4705 139.002 23.3107 139.57 23.175C139.679 23.1488 139.785 23.1235 139.887 23.0988C140.572 22.9319 141.104 22.7901 141.531 22.6162C141.957 22.443 142.123 22.2974 142.187 22.2184L142.188 22.2173C142.216 22.1823 142.294 22.0858 142.281 21.7529C142.267 21.3646 142.127 20.7179 141.672 19.7083C141.269 18.813 141.668 17.7604 142.563 17.3573C143.459 16.9542 144.511 17.3533 144.914 18.2486C145.984 20.625 146.283 22.7977 144.958 24.4461C144.362 25.1873 143.574 25.6235 142.871 25.9096C142.17 26.1951 141.399 26.3902 140.728 26.5535L140.615 26.5811C139.647 26.8166 138.864 27.0072 138.235 27.2645C138.244 28.8377 137.931 30.4326 137.265 31.9513C137.325 31.9647 137.388 31.9768 137.454 31.9873C138.475 32.1512 139.78 31.9267 141.513 31.5992L141.669 31.5698C143.191 31.2814 145.094 30.9209 146.796 31.1942C147.732 31.3444 148.68 31.6916 149.513 32.3793C150.348 33.0673 150.958 34.0053 151.365 35.1611C151.692 36.0872 151.205 37.1024 150.279 37.4286C149.353 37.7549 148.338 37.2686 148.012 36.3425C147.777 35.6756 147.496 35.3241 147.251 35.1224C147.006 34.9205 146.688 34.7779 146.233 34.7049C145.212 34.541 143.907 34.7655 142.173 35.093L142.018 35.1224C140.496 35.4108 138.593 35.7713 136.89 35.498C136.46 35.429 136.028 35.3183 135.605 35.152C135.019 36.2369 134.439 37.2798 133.862 38.2864C133.729 38.8821 133.767 39.1749 133.795 39.2802C133.81 39.3354 133.814 39.3444 133.874 39.3838C133.986 39.457 134.219 39.5562 134.668 39.6418C135.111 39.7264 135.616 39.7731 136.233 39.8281L136.274 39.8317C136.844 39.8824 137.516 39.9423 138.15 40.0634C138.795 40.1864 139.552 40.398 140.226 40.8399C140.952 41.3155 141.53 42.0259 141.79 42.9965C142.035 43.908 141.961 44.9051 141.698 45.9424C141.458 46.8943 140.491 47.4707 139.539 47.23C138.587 46.9892 138.01 46.0224 138.251 45.0705C138.429 44.3669 138.387 44.0318 138.356 43.9176C138.341 43.8624 138.337 43.8534 138.277 43.814C138.166 43.7408 137.932 43.6416 137.484 43.556C137.04 43.4714 136.535 43.4247 135.918 43.3697L135.877 43.366L135.877 43.366L135.877 43.366C135.308 43.3153 134.635 43.2555 134.001 43.1344C133.357 43.0113 132.6 42.7998 131.925 42.3579C131.804 42.2781 131.686 42.1918 131.573 42.0987C130.791 43.34 130 44.5291 129.188 45.6801C129.312 45.7612 129.432 45.846 129.548 45.9338C130.924 46.9718 131.983 48.5938 132.83 49.8915L132.916 50.0239C133.881 51.5008 134.624 52.5973 135.449 53.2199C135.817 53.4974 136.141 53.6283 136.456 53.6649C136.771 53.7015 137.219 53.6607 137.863 53.368C138.756 52.9617 139.81 53.3568 140.217 54.2506C140.623 55.1444 140.228 56.1985 139.334 56.6048C138.219 57.112 137.119 57.3217 136.045 57.1968C134.972 57.072 134.065 56.6294 133.308 56.0587C131.932 55.0207 130.873 53.3986 130.026 52.101L129.94 51.9686C128.975 50.4917 128.233 49.3952 127.407 48.7725C127.288 48.6828 127.174 48.6083 127.063 48.5475C125.855 50.0958 124.587 51.5919 123.224 53.0754C123.231 53.0839 123.24 53.0934 123.252 53.1051C123.347 53.1993 123.556 53.3434 123.978 53.5173C124.395 53.6892 124.88 53.8364 125.474 54.0143L125.513 54.0261C126.061 54.1901 126.707 54.3838 127.305 54.6298C127.911 54.8798 128.61 55.239 129.182 55.8074C129.798 56.4192 130.221 57.2311 130.281 58.2342C130.338 59.1763 130.065 60.1382 129.599 61.1016C129.172 61.9857 128.109 62.3563 127.225 61.9292C126.341 61.5022 125.971 60.4393 126.398 59.5551C126.713 58.9016 126.739 58.5648 126.732 58.4467C126.728 58.3897 126.727 58.3801 126.676 58.3295C126.581 58.2354 126.372 58.0912 125.95 57.9173C125.533 57.7454 125.047 57.5982 124.454 57.4203L124.414 57.4085L124.414 57.4085C123.867 57.2446 123.22 57.0509 122.623 56.8048C122.021 56.5569 121.329 56.2015 120.76 55.6412C119.27 57.1289 117.665 58.6268 115.91 60.1751C116.717 60.7209 117.878 61.1312 119.381 61.6389L119.531 61.6894C121 62.1844 122.835 62.8031 124.185 63.8756C124.927 64.4652 125.582 65.2323 125.972 66.2404C126.362 67.2491 126.434 68.3659 126.223 69.5729C126.053 70.54 125.132 71.1865 124.165 71.0169C123.197 70.8473 122.551 69.9258 122.72 68.9587C122.843 68.2623 122.77 67.8181 122.656 67.5225C122.541 67.2264 122.333 66.9459 121.973 66.6593C121.163 66.016 119.916 65.572 118.244 65.0078L118.094 64.9572C116.626 64.4623 114.791 63.8436 113.441 62.7711C113.347 62.6963 113.254 62.6187 113.163 62.5381C112.9 62.7592 112.634 62.9817 112.364 63.2056C111.927 63.5687 111.472 63.8941 111.001 64.1823C110.874 64.3697 110.825 64.4943 110.808 64.5578C110.793 64.613 110.792 64.6226 110.824 64.6869C110.884 64.8063 111.036 65.0096 111.38 65.3092C111.721 65.6051 112.134 65.8997 112.64 66.2577L112.673 66.2814C113.14 66.6115 113.691 67.0015 114.178 67.4252C114.673 67.8556 115.221 68.4192 115.582 69.1403C115.97 69.9166 116.112 70.8213 115.849 71.7911C115.602 72.7019 115.036 73.5264 114.288 74.2909C113.601 74.9926 112.475 75.0045 111.774 74.3176C111.072 73.6308 111.06 72.5052 111.747 71.8035C112.255 71.285 112.386 70.9739 112.417 70.8598C112.432 70.8046 112.434 70.795 112.401 70.7307C112.342 70.6112 112.19 70.408 111.845 70.1084C111.505 69.8125 111.091 69.5179 110.586 69.1599L110.552 69.1362C110.086 68.8061 109.535 68.4161 109.047 67.9923C108.552 67.5619 108.005 66.9984 107.644 66.2773C107.539 66.068 107.452 65.8493 107.387 65.6226C106.719 65.7643 106.042 65.8459 105.364 65.868C105.395 67.3192 105.075 68.8313 104.81 70.0845L104.777 70.2392C104.413 71.9653 104.161 73.2652 104.303 74.2894C104.366 74.7457 104.502 75.0672 104.698 75.3164C104.895 75.5652 105.24 75.8537 105.902 76.1028C106.821 76.4487 107.285 77.4741 106.94 78.393C106.594 79.3119 105.568 79.7764 104.649 79.4305C103.503 78.9988 102.578 78.3684 101.908 77.5197C101.238 76.6713 100.911 75.7168 100.781 74.7779C100.544 73.0704 100.945 71.1754 101.266 69.6594L101.298 69.5047C101.663 67.7786 101.915 66.4787 101.773 65.4545L101.768 65.4201C100.965 65.1888 100.185 64.8698 99.4417 64.4646C99.1792 64.5388 98.8957 64.5535 98.6099 64.4962C97.8983 64.3535 97.5658 64.4127 97.4531 64.449C97.3988 64.4665 97.39 64.4707 97.3536 64.5327C97.2861 64.6479 97.1987 64.8862 97.1355 65.3384C97.0731 65.7851 97.0517 66.2921 97.0275 66.9114L97.0259 66.9524C97.0036 67.5234 96.9773 68.198 96.888 68.8376C96.7972 69.4873 96.6236 70.2537 96.2159 70.9493C95.777 71.6981 95.0964 72.3108 94.1399 72.6191C93.2418 72.9087 92.2422 72.8845 91.1932 72.6742C90.2305 72.4811 89.6065 71.5442 89.7995 70.5815C89.9925 69.6188 90.9294 68.9949 91.8921 69.1879C92.6037 69.3305 92.9363 69.2713 93.0489 69.235C93.1032 69.2175 93.112 69.2133 93.1484 69.1513C93.2159 69.0361 93.3034 68.7978 93.3665 68.3457C93.4289 67.8989 93.4504 67.3919 93.4745 66.7727L93.4761 66.7316L93.4761 66.7315C93.4984 66.1606 93.5247 65.486 93.614 64.8464C93.7048 64.1968 93.8784 63.4303 94.2861 62.7347C94.6294 62.149 95.1207 61.6465 95.7762 61.3079C95.1647 60.5041 94.6743 59.6435 94.3026 58.7488C93.691 58.9699 93.0474 59.1319 92.4768 59.2709L92.3634 59.2985C90.9334 59.6466 89.906 59.8967 89.1835 60.4087C88.8677 60.6324 88.6497 60.8862 88.5055 61.2162C88.3558 61.5587 88.2384 62.0931 88.3021 62.9403C88.3756 63.9194 87.6415 64.7728 86.6624 64.8464C85.6833 64.92 84.83 64.1859 84.7564 63.2068C84.6599 61.9231 84.8144 60.7832 85.2473 59.7926C85.6856 58.7894 86.3608 58.0509 87.1278 57.5074C88.4336 56.5822 90.107 56.1821 91.3184 55.8925L91.3202 55.8921L91.3233 55.8913C91.4312 55.8655 91.5354 55.8406 91.6354 55.8163C92.3208 55.6493 92.8526 55.5075 93.2798 55.3337C93.3459 55.3068 93.4057 55.2806 93.4598 55.2552C93.391 54.4 93.4174 53.5403 93.5375 52.693C93.5011 52.6069 93.4623 52.5178 93.4209 52.4258C93.2678 52.0858 93.2304 51.7232 93.2919 51.3821C92.7538 51.461 92.1629 51.5695 91.5115 51.6926L91.3562 51.722C89.8337 52.0103 87.9306 52.3708 86.2285 52.0976C85.2927 51.9474 84.3453 51.6002 83.5114 50.9125C82.6771 50.2244 82.0666 49.2864 81.6594 48.1307C81.3332 47.2046 81.8195 46.1894 82.7455 45.8631C83.6716 45.5369 84.6868 46.0231 85.0131 46.9492C85.248 47.6161 85.5292 47.9677 85.7737 48.1693C86.0186 48.3713 86.3371 48.5139 86.792 48.5869C87.813 48.7508 89.1179 48.5263 90.8514 48.1987L91.0067 48.1693L91.0068 48.1693C92.3391 47.917 93.9628 47.6094 95.4883 47.7196C96.0698 46.8843 96.7721 46.1126 97.5928 45.4305C98.1263 44.9872 98.6413 44.5541 99.1393 44.1295C99.0167 44.0895 98.8599 44.0488 98.6608 44.0108C98.2177 43.9262 97.7123 43.8795 97.0951 43.8245L97.0541 43.8209L97.054 43.8209C96.4849 43.7702 95.8125 43.7103 95.1782 43.5892C94.5339 43.4662 93.777 43.2546 93.1026 42.8127C92.3766 42.337 91.7986 41.6267 91.5383 40.6561C91.2939 39.7446 91.3679 38.7474 91.6303 37.7102C91.871 36.7583 92.8379 36.1819 93.7898 36.4226C94.7416 36.6634 95.3181 37.6302 95.0774 38.5821C94.8994 39.2857 94.942 39.6208 94.9726 39.735C94.9874 39.7902 94.9912 39.7992 95.0513 39.8386C95.163 39.9118 95.3966 40.011 95.845 40.0966C96.2881 40.1812 96.7935 40.2279 97.4107 40.2829L97.4517 40.2866C98.0208 40.3372 98.6932 40.3971 99.3276 40.5182C99.9719 40.6413 100.729 40.8528 101.403 41.2947C101.583 41.4123 101.753 41.5442 101.912 41.6908C103.286 40.4382 104.518 39.2377 105.651 38.0374C105.495 37.9719 105.343 37.9001 105.195 37.8232C103.72 37.0565 102.476 35.6573 101.505 34.5634L101.396 34.4417C100.273 33.1788 99.4431 32.2825 98.6147 31.8519C98.2564 31.6656 97.966 31.6078 97.6942 31.6289C97.4166 31.6504 97.0057 31.7663 96.4315 32.1758C95.632 32.7459 94.5218 32.5599 93.9518 31.7605C93.3817 30.961 93.5677 29.8508 94.3671 29.2808C95.345 28.5835 96.362 28.1659 97.4192 28.0839C98.4821 28.0015 99.4333 28.2701 100.254 28.6969C101.73 29.4637 102.973 30.8628 103.945 31.9567L104.053 32.0785C105.176 33.3413 106.006 34.2377 106.835 34.6683C107.193 34.8545 107.483 34.9123 107.755 34.8912C107.967 34.8747 108.258 34.803 108.64 34.5869C109.434 33.5817 110.191 32.545 110.933 31.4494C110.878 31.2096 110.872 30.9545 110.924 30.6976C111.069 29.9865 111.011 29.6538 110.975 29.5411C110.957 29.4866 110.953 29.4778 110.891 29.4413C110.776 29.3735 110.538 29.2854 110.086 29.221C109.64 29.1573 109.133 29.1345 108.514 29.1086L108.472 29.1069L108.472 29.1069C107.902 29.0831 107.227 29.0549 106.588 28.9638C105.938 28.8713 105.172 28.6956 104.478 28.286C103.73 27.845 103.119 27.1627 102.814 26.2054C102.527 25.3064 102.554 24.3069 102.767 23.2585C102.962 22.2963 103.901 21.6749 104.863 21.8706C105.825 22.0663 106.447 23.0049 106.251 23.9671C106.107 24.6782 106.165 25.0109 106.201 25.1236C106.218 25.1781 106.222 25.1869 106.284 25.2234C106.399 25.2912 106.637 25.3793 107.089 25.4437C107.536 25.5074 108.043 25.5302 108.662 25.5561L108.703 25.5578C109.274 25.5816 109.948 25.6098 110.588 25.7009C111.237 25.7934 112.003 25.9691 112.698 26.3787C113.038 26.5797 113.351 26.8309 113.619 27.1354C114.328 25.9083 115.049 24.5966 115.801 23.1765C115.429 22.8359 115.126 22.4569 114.877 22.1061C114.503 21.5796 114.169 20.9931 113.887 20.4965L113.886 20.4964L113.886 20.4961L113.886 20.4961L113.866 20.4603C113.559 19.9218 113.307 19.4815 113.046 19.1136C112.782 18.7413 112.594 18.57 112.481 18.4988C112.421 18.4605 112.411 18.4609 112.355 18.4703C112.238 18.4899 111.915 18.5905 111.349 19.0447C110.584 19.6592 109.465 19.5366 108.85 18.7708C108.236 18.005 108.358 16.8861 109.124 16.2715C109.958 15.6019 110.835 15.1202 111.765 14.9638C112.756 14.7973 113.643 15.0279 114.377 15.4906C115.059 15.9204 115.566 16.5209 115.946 17.0559C116.319 17.5825 116.653 18.1693 116.936 18.6659L116.956 18.7016C117.248 19.2139 117.49 19.6372 117.738 19.9939C118.712 18.8038 119.895 17.8443 121.205 17.1419C119.978 16.2401 118.488 15.1222 117.56 13.738C117.032 12.9509 116.64 12.021 116.575 10.9421C116.509 9.86272 116.779 8.77662 117.347 7.69086C117.803 6.82088 118.877 6.48462 119.747 6.9398C120.617 7.39498 120.953 8.46924 120.498 9.33922C120.17 9.96573 120.105 10.411 120.124 10.7274C120.143 11.0443 120.256 11.3745 120.512 11.7571C121.088 12.6158 122.142 13.4176 123.563 14.4626L123.691 14.5563C124.216 14.942 124.796 15.3683 125.364 15.8392C125.781 15.7912 126.201 15.7657 126.623 15.7634C126.75 15.0465 126.913 14.3553 127.061 13.7291L127.061 13.7291L127.061 13.729L127.097 13.5752C127.502 11.8581 127.784 10.5644 127.666 9.53719C127.614 9.07949 127.485 8.75486 127.295 8.50118C127.104 8.2479 126.765 7.95134 126.11 7.68682ZM100.054 58.4107C97.7936 55.6908 98.1662 51.6534 100.886 49.3931C110.965 41.0174 115.047 35.7935 120.997 24.3644C122.63 21.2275 126.497 20.0085 129.634 21.6416C132.771 23.2747 133.99 27.1416 132.357 30.2785C125.654 43.1523 120.515 49.7334 109.072 59.2429C106.352 61.5032 102.314 61.1306 100.054 58.4107ZM121.992 37.5741C124.189 38.3547 126.604 37.2058 127.385 35.0079C128.165 32.8101 127.016 30.3956 124.818 29.615C122.621 28.8345 120.206 29.9833 119.425 32.1812C118.645 34.379 119.794 36.7935 121.992 37.5741Z" fill="#9AE0A5"/>
</g>
</svg>
